<svg width="60" height="60" viewBox="0 0 60 60" fill="none" xmlns="http://www.w3.org/2000/svg">
<path d="M55.2786 16.17L36.5286 5.85748C36.2518 5.70517 35.9409 5.62531 35.6249 5.62531C35.3089 5.62531 34.998 5.70517 34.7211 5.85748L15.9712 16.17C15.6772 16.3318 15.432 16.5696 15.2613 16.8585C15.0906 17.1475 15.0005 17.4769 15.0005 17.8125C15.0005 18.1481 15.0906 18.4775 15.2613 18.7664C15.432 19.0553 15.6772 19.2931 15.9712 19.455L33.7499 29.2331V49.3312L28.0574 46.2L26.2499 49.4831L34.7211 54.1425C34.9979 54.2951 35.3088 54.3752 35.6249 54.3752C35.941 54.3752 36.2519 54.2951 36.5286 54.1425L55.2786 43.83C55.5727 43.6682 55.818 43.4304 55.9888 43.1415C56.1597 42.8526 56.2498 42.5231 56.2499 42.1875V17.8125C56.2498 17.4768 56.1597 17.1474 55.9888 16.8584C55.818 16.5695 55.5727 16.3318 55.2786 16.17ZM35.6249 9.64123L50.4843 17.8125L35.6249 25.9837L20.7655 17.8125L35.6249 9.64123ZM52.4999 41.0794L37.4999 49.3294V29.2312L52.4999 20.9812V41.0794Z" fill="#003366"/>
<path d="M18.75 30H3.75V26.25H18.75V30Z" fill="#003366"/>
<path d="M22.5 45H7.5V41.25H22.5V45Z" fill="#003366"/>
<path d="M26.25 37.5H11.25V33.75H26.25V37.5Z" fill="#003366"/>
</svg>
