<svg width="60" height="60" viewBox="0 0 60 60" fill="none" xmlns="http://www.w3.org/2000/svg">
<path d="M44.2331 30C44.2261 27.7589 43.986 25.5247 43.5164 23.3333H49.5164C49.2074 22.4193 48.8343 21.5281 48.3998 20.6666H42.8164C41.7669 17.1601 40.1389 13.8535 37.9998 10.8833C36.6331 10.3086 35.2081 9.88394 33.7498 9.61665C36.6803 12.7654 38.8924 16.5128 40.2331 20.6H31.2498V9.33331H28.7498V20.6166H19.7664C21.1099 16.5221 23.3278 12.7686 26.2664 9.61665C24.8144 9.87948 23.395 10.2986 22.0331 10.8666C19.8855 13.8243 18.2464 17.1196 17.1831 20.6166H11.5664C11.1241 21.4939 10.7453 22.4018 10.4331 23.3333H16.4831C16.0136 25.5247 15.7734 27.7589 15.7664 30C15.771 32.4513 16.0506 34.8943 16.5998 37.2833H10.6998C11.0446 38.2175 11.4568 39.1255 11.9331 40H17.3164C18.3368 43.193 19.8495 46.207 21.7998 48.9333C23.1964 49.5323 24.6554 49.9739 26.1498 50.25C23.4296 47.2829 21.3377 43.7964 19.9998 40H28.7664V50.5666H31.2664V40H39.9998C38.6573 43.7979 36.5596 47.2847 33.8331 50.25C35.3345 49.9644 36.7992 49.5116 38.1998 48.9C40.147 46.1839 41.6596 43.1813 42.6831 40H48.0164C48.4906 39.1416 48.9028 38.2505 49.2498 37.3333H43.3331C43.9085 34.9306 44.2104 32.4705 44.2331 30ZM28.7498 37.2833H19.1831C18.0097 32.6964 17.9583 27.8943 19.0331 23.2833H28.7498V37.2833ZM40.8164 37.2833H31.2498V23.3333H40.9664C41.4452 25.5229 41.68 27.7587 41.6664 30C41.68 32.4533 41.3946 34.8991 40.8164 37.2833Z" fill="#003366"/>
<path d="M30.0002 3.33334C24.726 3.33334 19.5703 4.89732 15.185 7.82749C10.7997 10.7577 7.38172 14.9224 5.36339 19.7951C3.34505 24.6678 2.81696 30.0296 3.8459 35.2024C4.87484 40.3753 7.4146 45.1268 11.144 48.8562C14.8734 52.5856 19.6249 55.1254 24.7978 56.1543C29.9706 57.1832 35.3324 56.6552 40.2051 54.6368C45.0778 52.6185 49.2425 49.2005 52.1727 44.8152C55.1029 40.4299 56.6669 35.2742 56.6669 30C56.6669 22.9276 53.8573 16.1448 48.8564 11.1438C43.8554 6.14286 37.0726 3.33334 30.0002 3.33334ZM30.0002 53.3334C25.3853 53.3334 20.874 51.9649 17.0369 49.401C13.1997 46.8371 10.209 43.1929 8.44299 38.9293C6.67694 34.6657 6.21486 29.9741 7.11519 25.4479C8.01551 20.9217 10.2378 16.7641 13.501 13.5009C16.7642 10.2376 20.9219 8.01534 25.4481 7.11502C29.9743 6.2147 34.6659 6.67678 38.9295 8.44282C43.1931 10.2089 46.8372 13.1996 49.4011 17.0367C51.965 20.8739 53.3335 25.3851 53.3335 30C53.3335 36.1884 50.8752 42.1233 46.4993 46.4992C42.1235 50.875 36.1886 53.3334 30.0002 53.3334Z" fill="#003366"/>
</svg>
